<?xml version="1.0" encoding="UTF-8" standalone="no"?>
<svg
   xmlns:dc="http://purl.org/dc/elements/1.1/"
   xmlns:cc="http://creativecommons.org/ns#"
   xmlns:rdf="http://www.w3.org/1999/02/22-rdf-syntax-ns#"
   xmlns:svg="http://www.w3.org/2000/svg"
   xmlns="http://www.w3.org/2000/svg"
   viewBox="0 0 95.910202 84.867821"
   height="84.867821"
   width="95.910202"
   version="1.1"
   id="svg6516">
  <metadata
     id="metadata6522">
    <rdf:RDF>
      <cc:Work
         rdf:about="">
        <dc:format>image/svg+xml</dc:format>
        <dc:type
           rdf:resource="http://purl.org/dc/dcmitype/StillImage" />
        <dc:title></dc:title>
      </cc:Work>
    </rdf:RDF>
  </metadata>
  <defs
     id="defs6520" />
  <g
     transform="translate(-21.590384,-23.789913)"
     id="g7066">
    <path
       id="path7076"
       d="m 24.300655,71.25 c 0,-19.59375 0.172796,-27.609375 0.383992,-17.8125 0.211198,9.796875 0.211198,25.828125 0,35.625 -0.211196,9.796875 -0.383992,1.78125 -0.383992,-17.8125 z"
       style="fill:#b8b8b8" />
    <path
       id="path7074"
       d="m 31.800655,71.25 c 0,-19.59375 0.172796,-27.609375 0.383992,-17.8125 0.211198,9.796875 0.211198,25.828125 0,35.625 -0.211196,9.796875 -0.383992,1.78125 -0.383992,-17.8125 z"
       style="fill:#989898" />
    <path
       id="path7072"
       d="m 26.588541,107.99479 c 0.415365,-0.41536 1.49349,-0.45977 2.395834,-0.0987 0.997166,0.39904 0.70097,0.69523 -0.755209,0.75521 -1.317707,0.0543 -2.055989,-0.24116 -1.640625,-0.65652 z M 35.514087,62.5 c 0,-12.03125 0.18748,-16.953125 0.416623,-10.9375 0.229142,6.015625 0.229142,15.859375 0,21.875 C 35.701568,79.453125 35.514087,74.53125 35.514087,62.5 Z M 110.4932,56.875 c 0.002,-9.625 0.19816,-13.397265 0.43604,-8.382813 0.23787,5.014454 0.23627,12.889454 -0.003,17.5 C 110.68587,70.602735 110.49125,66.5 110.4932,56.875 Z M 63.4375,36.672149 c 0.859375,-0.346765 2.265625,-0.346765 3.125,0 0.859375,0.346766 0.15625,0.630482 -1.5625,0.630482 -1.71875,0 -2.421875,-0.283716 -1.5625,-0.630482 z"
       style="fill:#666666" />
    <path
       id="path7070"
       d="m 92.838541,79.244791 c 0.415365,-0.415363 1.49349,-0.459772 2.395834,-0.09869 0.997166,0.399032 0.70097,0.695229 -0.755209,0.755209 -1.317707,0.05427 -2.055989,-0.241161 -1.640625,-0.656526 z"
       style="fill:#383838" />
    <path
       id="path7068"
       d="m 25,71.831021 c 0,-30.729532 -0.279559,-36.09564 -2.018763,-38.75 -1.860371,-2.839286 -1.85811,-3.326206 0.02881,-6.206021 2.354284,-3.593091 7.049677,-4.136698 10.02566,-1.160714 2.447691,2.44769 2.480919,4.374841 0.12904,7.484301 -1.512551,1.999773 -1.842235,8.745363 -1.875,38.363913 L 31.25,107.5 l -3.125,0 -3.125,0 0,-35.668979 z M 37.155714,85.489047 C 36.657571,84.990905 36.25,74.528198 36.25,62.238587 l 0,-22.344745 7.731261,-3.656308 C 59.051696,29.110345 69.38701,28.794252 83.482672,35.029435 91.43786,38.548392 97.992739,38.169231 106.85051,33.677742 117.3003,28.378995 117.5,28.781641 117.5,55.149626 c 0,23.852181 0.26806,23.167404 -10.67105,27.260249 -9.343636,3.495901 -16.206694,3.296172 -25.110912,-0.73078 C 71.483104,77.050323 61.047459,77.073571 50,81.749755 39.433,86.222571 38.237327,86.570661 37.155714,85.489047 Z m 69.406786,-9.433456 4.6875,-2.356401 0,-17.474595 C 111.25,46.613568 111.04025,38.75 110.7839,38.75 c -0.25636,0 -3.12372,1.175589 -6.37191,2.61242 C 97.042833,44.622148 90.376172,44.137514 77.531712,39.408356 66.863701,35.480537 61.43549,35.594947 49.67392,39.995515 L 42.5,42.679622 l 0,17.410189 C 42.5,69.665415 42.69319,77.5 42.929312,77.5 c 0.236122,0 3.751747,-1.162377 7.8125,-2.583061 9.412337,-3.292973 21.839862,-3.527204 28.633188,-0.539671 13.946614,6.133366 17.846362,6.374103 27.1875,1.678323 z"
       style="fill:#212121" />
  </g>
  <path
     id="path7078"
     d="m 42.65782,13.461218 c -0.614131,-0.03587 -1.109538,-0.150391 -1.146039,-0.264925 -0.02843,-0.08922 0.174253,-0.244029 0.431256,-0.329391 0.210924,-0.07006 0.398831,-0.07608 1.574647,-0.05049 1.199802,0.02611 1.353624,0.03849 1.517471,0.122076 0.260684,0.132991 0.314213,0.209277 0.211298,0.301131 -0.218228,0.194774 -1.365875,0.293019 -2.588633,0.221602 z"
     style="opacity:0.95;fill:#f9f9f9;stroke:#ffffff;stroke-width:0.04728402" />
  <path
     id="path7080"
     d="m 5.8983379,84.841129 c -0.6109755,-0.05059 -0.9987137,-0.208801 -0.9987137,-0.407508 0,-0.24235 0.3831259,-0.468867 0.9129055,-0.53974 0.3917261,-0.0524 0.973647,0.01371 1.4040115,0.159521 0.4069019,0.13786 0.7565443,0.353012 0.7565443,0.465539 0,0.08544 -0.1843592,0.184374 -0.4433255,0.237896 -0.3719561,0.07687 -1.2026616,0.119795 -1.6314221,0.08429 z"
     style="opacity:0.95;fill:#f9f9f9;stroke:#ffffff;stroke-width:0.02364201" />
  <path
     id="path7082"
     d="m 72.863129,55.468535 c -0.05201,-0.0076 -0.355987,-0.03992 -0.675499,-0.07176 -0.319512,-0.03183 -0.591446,-0.07489 -0.604298,-0.09569 -0.04566,-0.07387 0.388026,-0.153557 0.830599,-0.152613 0.465646,9.93e-4 0.893409,0.0863 1.245713,0.248435 l 0.19645,0.09041 -0.449198,-0.0025 c -0.24706,-0.0014 -0.491754,-0.0087 -0.543767,-0.01633 z"
     style="opacity:0.95;fill:#f9f9f9;stroke:#ffffff;stroke-width:0.04728402" />
</svg>
