<?xml version="1.0" encoding="UTF-8" standalone="no"?>
<svg
   xmlns:dc="http://purl.org/dc/elements/1.1/"
   xmlns:cc="http://creativecommons.org/ns#"
   xmlns:rdf="http://www.w3.org/1999/02/22-rdf-syntax-ns#"
   xmlns:svg="http://www.w3.org/2000/svg"
   xmlns="http://www.w3.org/2000/svg"
   viewBox="0 0 57.255936 84.847466"
   height="84.847466"
   width="57.255936"
   version="1.1"
   id="svg7796">
  <metadata
     id="metadata7802">
    <rdf:RDF>
      <cc:Work
         rdf:about="">
        <dc:format>image/svg+xml</dc:format>
        <dc:type
           rdf:resource="http://purl.org/dc/dcmitype/StillImage" />
        <dc:title></dc:title>
      </cc:Work>
    </rdf:RDF>
  </metadata>
  <defs
     id="defs7800" />
  <g
     transform="translate(-13.842254,-17.652536)"
     id="g8346">
    <path
       id="path8354"
       d="m 56.25,55.625 c 0.855861,-1.03125 1.837361,-1.875 2.181111,-1.875 0.34375,0 -0.07525,0.84375 -0.931111,1.875 -0.855861,1.03125 -1.837361,1.875 -2.181111,1.875 -0.34375,0 0.07525,-0.84375 0.931111,-1.875 z"
       style="fill:#d1d1d1" />
    <path
       id="path8352"
       d="M 63.006235,25.9375 60.625,23.125 l 2.8125,2.381235 c 1.546875,1.309679 2.8125,2.575304 2.8125,2.8125 0,1.000316 -1.005993,0.261821 -3.243765,-2.381235 z"
       style="fill:#9c9c9c" />
    <path
       id="path8350"
       d="m 47.5,100.625 c 0.855861,-1.03125 1.837361,-1.875 2.181111,-1.875 0.34375,0 -0.07525,0.84375 -0.931111,1.875 -0.855861,1.03125 -1.837361,1.875 -2.181111,1.875 -0.34375,0 0.07525,-0.84375 0.931111,-1.875 z M 35.803917,72.789495 c -0.326493,-0.528277 1.749685,-0.77977 4.613729,-0.558871 8.411713,0.64878 9.435375,1.218691 2.468625,1.374375 -3.568801,0.07975 -6.75586,-0.287226 -7.082354,-0.815504 z M 70.098684,43.229166 c -0.05428,-1.317707 0.24116,-2.055988 0.656525,-1.640625 0.415363,0.415365 0.459772,1.49349 0.09869,2.395834 -0.399032,0.997166 -0.695229,0.70097 -0.755209,-0.755209 z m -56.25,-3.75 c -0.05428,-1.317707 0.24116,-2.055988 0.656525,-1.640625 0.415364,0.415365 0.459772,1.49349 0.09869,2.395834 -0.399032,0.997166 -0.695228,0.70097 -0.755208,-0.755209 z M 20.625,26.25 c 1.244357,-1.375 2.543719,-2.5 2.887469,-2.5 0.34375,0 -0.393112,1.125 -1.637469,2.5 -1.244358,1.375 -2.543719,2.5 -2.887469,2.5 -0.34375,0 0.393111,-1.125 1.637469,-2.5 z m 19.6875,-8.361658 c 1.203125,-0.314408 3.171875,-0.314408 4.375,0 1.203125,0.31441 0.21875,0.571654 -2.1875,0.571654 -2.40625,0 -3.390625,-0.257244 -2.1875,-0.571654 z"
       style="fill:#636363" />
    <path
       id="path8348"
       d="M 36.452814,100.3125 C 35.189361,99.109375 33.092067,97.508815 31.792159,96.7557 28.086741,94.608929 27.089546,88.364105 27.776592,71.608634 27.901505,68.562246 26.492993,65.748829 21.944391,59.959186 15.619533,51.908651 13.433295,45.777388 14.631955,39.451589 17.062461,26.624852 27.828561,18.718202 42.772351,18.785212 c 14.483252,0.06495 25.761848,8.899654 26.933934,21.097791 0.81387,8.470102 -0.09704,11.305479 -6.052611,18.839839 -5.785325,7.318987 -9.229441,14.523772 -7.464311,15.614682 1.284338,0.793765 1.527532,13.042842 0.298524,15.03598 -0.423418,0.686676 -0.790785,2.354746 -0.81637,3.706822 -0.02559,1.352075 -1.308268,3.090188 -2.850409,3.862471 -1.542142,0.772285 -3.836433,2.338591 -5.098427,3.480683 -2.987286,2.70345 -8.369975,2.65045 -11.269867,-0.11098 z M 50.108868,68.879554 c 0.802571,-2.678745 4.179691,-8.44437 7.504712,-12.8125 6.922833,-9.09463 7.914645,-15.010323 3.680784,-21.954133 C 52.686486,19.995437 25.766866,23.00061 21.299398,38.57776 c -1.517667,5.291792 0.162637,10.523061 5.454317,16.980859 3.993397,4.873415 6.999348,10.377129 8.740801,16.003881 0.526368,1.700727 2.065366,2.1875 6.916076,2.1875 6.16823,0 6.255619,-0.05529 7.698276,-4.870446 z m 0.797478,-27.558688 c -0.382007,-1.460797 -2.308724,-2.862778 -4.83329,-3.51696 -4.397662,-1.139548 -4.777292,-3.676242 -0.448056,-2.993922 4.123277,0.64986 8.125,3.835887 8.125,6.468832 0,3.179951 -2.015281,3.209752 -2.843654,0.04205 z"
       style="fill:#212121" />
  </g>
  <path
     id="path8356"
     d="m 0.21744933,22.972555 c -0.169726,-0.274622 -0.20259,-1.898672 -0.04773,-2.358554 0.195551,-0.580709 0.341463,-0.60625 0.592612,-0.103734 0.174303,0.348757 0.172002,0.467156 -0.0281,1.445975 -0.119871,0.586362 -0.218859,1.079669 -0.219973,1.096238 -0.0053,0.07941 -0.236868,0.01707 -0.296811,-0.07992 z"
     style="opacity:0.95;fill:#f9f9f9;stroke:#ffffff;stroke-width:0.12049788" />
  <path
     id="path8358"
     d="m 5.2852623,10.641198 c 0.33177,-0.648679 1.282154,-1.770964 2.536247,-2.994993 1.162523,-1.134653 1.676873,-1.524666 1.820854,-1.380685 0.104965,0.104966 -0.919968,1.518306 -1.351594,1.863793 -0.550248,0.440435 -1.985324,1.948683 -2.246707,2.361263 -0.12596,0.198821 -0.229221,0.31775 -0.229469,0.264287 -2.48e-4,-0.05346 -0.120964,-0.0128 -0.268258,0.09037 -0.407251,0.28525 -0.481602,0.227141 -0.261073,-0.204038 z"
     style="opacity:0.95;fill:#f9f9f9;stroke:#ffffff;stroke-width:0.12049788" />
  <path
     id="path8360"
     d="m 28.375966,0.828202 c 0.115206,-0.03016 0.332103,-0.03125 0.481991,-0.0024 0.149889,0.02882 0.05563,0.0535 -0.209466,0.05484 -0.265095,0.0013 -0.387732,-0.02224 -0.272525,-0.0524 z"
     style="opacity:0.95;fill:#f9f9f9;stroke:#ffffff;stroke-width:0.12049788" />
  <path
     id="path8362"
     d="M 51.531043,10.685877 C 51.272573,10.495061 50.864838,10.129049 50.624966,9.872517 49.719539,8.904204 47.748174,6.53346 47.802902,6.478732 c 0.07849,-0.07849 3.112554,2.563112 3.890809,3.387529 0.936771,0.992336 0.826167,1.549625 -0.162668,0.819616 z"
     style="opacity:0.95;fill:#f9f9f9;stroke:#ffffff;stroke-width:0.12049788" />
  <path
     id="path8364"
     d="m 27.142268,0.704713 c -0.77715,-0.05449 -1.137019,-0.151484 -1.011537,-0.272631 0.182079,-0.175787 1.485841,-0.364573 2.51776,-0.364573 1.51835,0 3.014948,0.331102 2.391296,0.529041 -0.264001,0.08379 -3.116233,0.162945 -3.897519,0.108163 z"
     style="opacity:0.95;fill:#f9f9f9;stroke:#ffffff;stroke-width:0.12049788" />
  <path
     id="path8366"
     d=""
     style="opacity:0.95;fill:#f9f9f9;stroke:#ffffff;stroke-width:0.12049788" />
  <path
     id="path8368"
     d="M 56.479659,26.691324 C 56.34278,26.469849 56.267027,25.186847 56.355855,24.5945 c 0.09454,-0.630456 0.366544,-0.840493 0.627063,-0.484212 0.21535,0.294509 0.21216,1.634623 -0.0051,2.15467 -0.190985,0.457092 -0.379444,0.618401 -0.498129,0.426366 z"
     style="opacity:0.95;fill:#f9f9f9;stroke:#ffffff;stroke-width:0.12049788" />
  <path
     id="path8370"
     d="m 25.093804,55.821199 c -0.03314,-0.03415 -0.385594,-0.08473 -0.783237,-0.112408 -0.758301,-0.05278 -1.69625,-0.399834 -1.966936,-0.727795 -0.140101,-0.169745 -0.103516,-0.20505 0.301245,-0.290703 1.174665,-0.248575 6.148362,0.01792 9.476335,0.507751 2.552074,0.375629 1.681419,0.550589 -3.111226,0.625207 -2.120763,0.03302 -3.883044,0.03209 -3.916181,-0.0021 z"
     style="opacity:0.95;fill:#f9f9f9;stroke:#ffffff;stroke-width:0.12049788" />
  <path
     id="path8372"
     d=""
     style="opacity:0.95;fill:#f9f9f9;stroke:#ffffff;stroke-width:0.12049788" />
  <path
     id="path8374"
     d=""
     style="opacity:0.95;fill:#f9f9f9;stroke:#ffffff;stroke-width:0.12049788" />
  <path
     id="path8376"
     d="m 41.42904,39.560689 c 0.244189,-0.785691 2.052287,-2.884537 2.832542,-3.288022 0.328093,-0.169664 0.352878,-0.166993 0.352878,0.03802 0,0.70478 -2.555759,3.521124 -3.19533,3.521124 -0.04089,0 -0.03643,-0.122004 0.0099,-0.271121 z"
     style="opacity:0.95;fill:#f9f9f9;stroke:#ffffff;stroke-width:0.12049788" />
  <path
     id="path8380"
     d="m 32.628086,84.75539 c -0.06219,-0.162049 0.392984,-0.968326 0.898628,-1.591813 0.25855,-0.318806 0.804003,-0.787965 1.682103,-1.446825 0.501359,-0.376181 0.706965,-0.508438 0.716975,-0.461196 0.01901,0.08971 -0.199706,0.548229 -0.419396,0.879234 -0.642002,0.967297 -1.929705,2.29497 -2.51596,2.594055 -0.1907,0.09729 -0.331253,0.107585 -0.36235,0.02654 z"
     style="opacity:0.95;fill:#f9f9f9;stroke:#ffffff;stroke-width:0.04260243" />
</svg>
