<?xml version="1.0" encoding="UTF-8" standalone="no"?>
<svg
   xmlns:dc="http://purl.org/dc/elements/1.1/"
   xmlns:cc="http://creativecommons.org/ns#"
   xmlns:rdf="http://www.w3.org/1999/02/22-rdf-syntax-ns#"
   xmlns:svg="http://www.w3.org/2000/svg"
   xmlns="http://www.w3.org/2000/svg"
   viewBox="0 0 80.545585 84.907738"
   height="84.907738"
   width="80.545586"
   version="1.1"
   id="svg8382">
  <metadata
     id="metadata8388">
    <rdf:RDF>
      <cc:Work
         rdf:about="">
        <dc:format>image/svg+xml</dc:format>
        <dc:type
           rdf:resource="http://purl.org/dc/dcmitype/StillImage" />
        <dc:title></dc:title>
      </cc:Work>
    </rdf:RDF>
  </metadata>
  <defs
     id="defs8386" />
  <g
     transform="translate(-29.556593,-21.25)"
     id="g8932">
    <path
       id="path8944"
       d="M 39.840556,92.8125 C 38.285718,90.82993 38.32993,90.785718 40.3125,92.340556 42.394685,93.973517 43.056849,95 42.028056,95 c -0.25957,0 -1.243945,-0.984375 -2.1875,-2.1875 z"
       style="fill:#e8e8e8" />
    <path
       id="path8942"
       d="m 62.598684,49.479166 c -0.05427,-1.317707 0.24116,-2.055988 0.656525,-1.640625 0.415363,0.415365 0.459772,1.49349 0.09869,2.395834 -0.399032,0.997166 -0.695229,0.70097 -0.755209,-0.755209 z"
       style="fill:#cfcfcf" />
    <path
       id="path8940"
       d="m 55.197369,48.75 c 0,-1.71875 0.283716,-2.421875 0.630482,-1.5625 0.346765,0.859375 0.346765,2.265625 0,3.125 -0.346766,0.859375 -0.630482,0.15625 -0.630482,-1.5625 z"
       style="fill:#8f8f8f" />
    <path
       id="path8938"
       d="m 70.338541,105.49479 c 0.415365,-0.41536 1.49349,-0.45977 2.395834,-0.0987 0.997166,0.39904 0.70097,0.69523 -0.755209,0.75521 -1.317707,0.0543 -2.055988,-0.24116 -1.640625,-0.65652 z M 95.75744,88.559926 c 1.302157,-1.823291 2.61756,-3.073291 2.923115,-2.777778 0.305556,0.295513 -0.759846,1.787297 -2.36756,3.315075 L 93.38988,91.875 95.75744,88.559926 Z"
       style="fill:#707070" />
    <path
       id="path8936"
       d="m 87.838541,85.494791 c 0.415365,-0.415364 1.49349,-0.459772 2.395834,-0.09869 0.997166,0.399032 0.70097,0.695228 -0.755209,0.755208 -1.317707,0.05427 -2.055989,-0.24116 -1.640625,-0.656525 z M 90.9375,79.172149 c 0.859375,-0.346765 2.265625,-0.346765 3.125,0 0.859375,0.346766 0.15625,0.630482 -1.5625,0.630482 -1.71875,0 -2.421875,-0.283716 -1.5625,-0.630482 z M 35.197369,62.5 c 0,-1.71875 0.283716,-2.421875 0.630482,-1.5625 0.346765,0.859375 0.346765,2.265625 0,3.125 -0.346766,0.859375 -0.630482,0.15625 -0.630482,-1.5625 z M 45.625,37.5 c 1.244357,-1.375 2.543719,-2.5 2.887469,-2.5 0.34375,0 -0.393112,1.125 -1.637469,2.5 -1.244358,1.375 -2.543719,2.5 -2.887469,2.5 -0.34375,0 0.393111,-1.125 1.637469,-2.5 z"
       style="fill:#4f4f4f" />
    <path
       id="path8934"
       d="M 55.790506,102.00052 C 44.754261,97.349598 39.188874,91.914645 33.535891,80.267477 24.74398,62.152996 30.972004,39.48664 47.769109,28.466904 55.714093,23.2546 61.246445,21.25 67.686529,21.25 c 5.808548,0 6.249672,2.033849 1.727146,7.963186 -7.774313,10.192649 -9.096629,22.165334 -3.65425,33.086767 6.599869,13.244211 20.410275,19.553729 34.655135,15.832782 10.46881,-2.734594 12.09014,-0.800751 6.60865,7.882484 -7.385911,11.700042 -18.749608,17.944041 -33.89821,18.626021 -8.467663,0.38121 -11.123891,-0.0234 -17.334494,-2.64072 z M 87.5,95.181668 c 5.531111,-2.864552 11.25,-7.379892 11.25,-8.88242 0,-0.420732 -3.374164,-0.858488 -7.498141,-0.972793 C 81.892842,85.067052 74.297095,81.797095 67.677906,75.177906 59.215707,66.715707 56.905658,61.05094 56.900803,48.75 c -0.0031,-7.90218 0.577238,-11.695846 2.264672,-14.803663 1.247876,-2.298265 1.991821,-4.455708 1.65321,-4.794318 -1.19621,-1.19621 -10.168873,3.948168 -14.579971,8.359267 C 27.238095,56.511905 35.41218,89.273788 61.241908,97.644364 67.338161,99.619962 81.493649,98.292346 87.5,95.181668 Z"
       style="fill:#222222" />
  </g>
  <path
     id="path8946"
     d="m 26.51049,27.779054 c -0.0061,-0.147963 0.02708,-0.230864 0.07372,-0.184223 0.04664,0.04664 0.05163,0.167701 0.01108,0.269023 -0.04481,0.11197 -0.07807,0.07871 -0.0848,-0.0848 z"
     style="opacity:0.95;fill:#f9f9f9;stroke:#ffffff;stroke-width:0.14036018" />
  <path
     id="path8948"
     d=""
     style="opacity:0.95;fill:#f9f9f9;stroke:#ffffff;stroke-width:0.14036018" />
  <path
     id="path8950"
     d="m 26.521571,27.276096 c 0,-0.192995 0.03186,-0.271948 0.0708,-0.17545 0.03894,0.0965 0.03894,0.254403 0,0.3509 -0.03894,0.0965 -0.0708,0.01755 -0.0708,-0.17545 z"
     style="opacity:0.95;fill:#f9f9f9;stroke:#ffffff;stroke-width:0.14036018" />
  <path
     id="path8952"
     d="M 36.324621,77.157858 C 33.175124,76.874761 30.795684,76.19134 27.20121,74.537437 21.646367,71.981523 16.169717,67.260523 12.624001,61.971543 9.4694434,57.266035 7.3481094,51.601836 6.6477104,46.014179 c -0.316349,-2.523776 -0.213174,-8.40146 0.18725,-10.667373 0.813553,-4.603712 2.588696,-9.185534 5.0301466,-12.983316 1.224724,-1.905111 2.451272,-3.460411 2.933968,-3.72036 0.553865,-0.298275 2.812681,-2.55658 3.523593,-3.522794 1.113694,-1.513643 6.53708,-5.1544875 9.726072,-6.5293365 2.110639,-0.909947 3.222915,-1.032675 3.222915,-0.355617 0,0.543577 -0.632181,2.2213985 -1.447818,3.8425425 -2.107877,4.189574 -2.567917,7.254132 -2.444127,16.281575 0.05945,4.3358 0.119007,5.473063 0.371838,7.100978 1.083522,6.976493 3.430807,11.360018 9.370507,17.499293 1.138888,1.177156 2.704406,2.671619 3.478929,3.321027 4.860506,4.075358 10.237262,6.514447 16.387004,7.433733 1.58723,0.237266 1.61904,0.249038 1.324287,0.490094 -0.231297,0.189161 -0.263572,0.286116 -0.137847,0.414095 0.469234,0.477654 3.134303,0.428146 3.134303,-0.05822 0,-0.102529 -0.142114,-0.256229 -0.31581,-0.341554 -0.259549,-0.1275 -0.178283,-0.144509 0.45617,-0.09547 0.42459,0.03282 1.526382,0.09628 2.44843,0.141039 1.66265,0.08071 3.72,0.292361 4.17424,0.429436 0.1895,0.05718 0.0983,0.215943 -0.46039,0.801701 -0.38318,0.401719 -1.30723,1.572858 -2.05344,2.602529 -1.22952,1.69655 -1.47594,1.955047 -2.62753,2.756265 -1.865946,1.298229 -5.058275,3.088223 -6.632299,3.718844 -2.379186,0.953203 -6.430847,1.853469 -10.499169,2.332882 -1.730105,0.203876 -8.118268,0.373584 -9.474312,0.251694 z M 26.285264,29.107749 c 0.254736,-0.492605 0.292159,-2.408134 0.06005,-3.07395 -0.176571,-0.506512 -0.485106,-0.579669 -0.622258,-0.147544 -0.152453,0.480342 -0.09993,3.028865 0.06892,3.344376 0.202641,0.378637 0.238562,0.369689 0.49328,-0.122882 z"
     style="opacity:0.95;fill:#f9f9f9;stroke:#ffffff;stroke-width:0.14036018" />
  <path
     id="path8954"
     d="m 35.903541,77.159254 c -3.38442,-0.408395 -6.261466,-1.332673 -9.8639,-3.168872 -4.149721,-2.115155 -8.543936,-5.695381 -11.523367,-9.388763 -3.1001,-3.842968 -5.6677416,-8.92224 -6.9553766,-13.759029 -0.837166,-3.144677 -1.024864,-4.632985 -1.086874,-8.618136 -0.03308,-2.125648 0.0075,-4.235409 0.09725,-5.052966 0.542184,-4.940568 2.335292,-10.099543 5.0172926,-14.435319 1.074587,-1.737198 2.786535,-3.986198 3.113242,-4.089891 0.344997,-0.109498 2.538017,-2.259785 3.509542,-3.441156 2.221624,-2.701489 10.527489,-7.6079565 12.547171,-7.4119075 0.866393,0.0841 0.671213,0.982669 -0.969706,4.4643435 -1.703698,3.614871 -2.085583,5.348738 -2.33891,10.619304 -0.201911,4.200803 0.01689,10.734308 0.441107,13.171745 1.101893,6.331184 3.204024,10.347476 8.320712,15.897407 6.32231,6.857636 12.476001,10.364003 20.517764,11.691005 1.586158,0.261738 1.905181,0.352309 1.719412,0.488147 -0.599359,0.438262 0.01769,0.767456 1.438543,0.767456 0.570368,0 1.048948,-0.07487 1.204191,-0.188386 0.245993,-0.179876 0.242623,-0.1989 -0.07458,-0.421081 -0.394186,-0.276099 -0.543699,-0.270072 2.326907,-0.09378 2.26966,0.139386 4.67796,0.396077 4.88478,0.52065 0.0619,0.03728 -0.16921,0.368988 -0.51357,0.73713 -0.34435,0.368142 -1.26551,1.531655 -2.04702,2.585584 -1.04821,1.4136 -1.64984,2.084279 -2.29364,2.556884 -1.036429,0.760835 -4.155549,2.641615 -5.519358,3.328088 -2.558259,1.287701 -6.788841,2.357467 -11.845672,2.995358 -1.539695,0.194223 -9.025356,0.376579 -10.105932,0.246186 z M 26.441599,28.295232 c 0.115648,-0.771192 -0.0011,-2.00841 -0.230003,-2.435989 -0.166472,-0.311056 -0.174693,-0.312095 -0.373339,-0.04713 -0.155368,0.207233 -0.191626,0.617401 -0.154227,1.744708 0.05369,1.618369 0.176477,2.031745 0.480146,1.616453 0.100846,-0.137916 0.225686,-0.533033 0.277423,-0.878038 z"
     style="opacity:0.95;fill:#f9f9f9;stroke:#ffffff;stroke-width:0.14036018" />
  <path
     id="path8956"
     d="m 25.887088,28.670925 c -0.140989,-0.704944 -0.104352,-2.632311 0.05187,-2.728863 0.239715,-0.148152 0.349909,0.369211 0.349909,1.642827 0,1.2914 -0.234133,1.924275 -0.401781,1.086036 z"
     style="opacity:0.95;fill:#f9f9f9;stroke:#ffffff;stroke-width:0.14036018" />
  <path
     id="path8958"
     d="m 33.973895,27.767357 c -0.0016,-0.308793 0.02591,-0.451644 0.06104,-0.317447 0.03513,0.134197 0.03641,0.386845 0.0028,0.561441 -0.03357,0.174595 -0.06232,0.0648 -0.06387,-0.243994 z"
     style="opacity:0.95;fill:#f9f9f9;stroke:#ffffff;stroke-width:0.14036018" />
  <path
     id="path8960"
     d="m 33.184804,29.206049 c -0.04655,-0.173696 -0.08463,-0.694783 -0.08463,-1.157972 0,-1.027526 0.108553,-1.473782 0.3585,-1.473782 0.296206,0 0.451825,0.425073 0.458228,1.251646 0.0092,1.189892 -0.517149,2.182171 -0.732094,1.380108 z"
     style="opacity:0.95;fill:#f9f9f9;stroke:#ffffff;stroke-width:0.14036018" />
  <path
     id="path8962"
     d="m 60.182245,64.80391 c 0.02332,-0.02332 0.08385,-0.02581 0.134512,-0.0055 0.05598,0.0224 0.03936,0.03903 -0.0424,0.0424 -0.07398,0.003 -0.115432,-0.01354 -0.09211,-0.03686 z"
     style="opacity:0.95;fill:#f9f9f9;stroke:#ffffff;stroke-width:0.07018009" />
  <path
     id="path8964"
     d=""
     style="opacity:0.95;fill:#f9f9f9;stroke:#ffffff;stroke-width:0.07018009" />
  <path
     id="path8966"
     d="m 64.584581,69.649873 c 0,-0.08349 2.45827,-3.256187 3.08793,-3.985352 0.74956,-0.86802 0.82215,-0.927235 1.05938,-0.864255 0.36966,0.09814 0.3813,0.145693 0.13401,0.547835 -0.40018,0.650789 -1.04846,1.388934 -2.34471,2.669766 -1.30841,1.292847 -1.93661,1.822234 -1.93661,1.632006 z"
     style="opacity:0.95;fill:#f9f9f9;stroke:#ffffff;stroke-width:0.07018009" />
  <path
     id="path8968"
     d="m 58.783361,64.699205 c -0.44071,-0.104488 -0.510842,-0.232457 -0.266924,-0.487052 0.109604,-0.114402 0.254669,-0.208003 0.322368,-0.208003 0.0677,0 0.141168,-0.02925 0.163266,-0.06501 0.02466,-0.03989 0.127756,-0.03989 0.266854,0 0.124672,0.03576 0.371268,0.06501 0.547993,0.06501 0.39465,0 0.87429,0.157294 1.149484,0.376963 l 0.206633,0.164942 -0.164634,0.08811 c -0.209168,0.111944 -1.827666,0.159255 -2.22504,0.06504 z"
     style="opacity:0.95;fill:#f9f9f9;stroke:#ffffff;stroke-width:0.07018009" />
  <path
     id="path8972"
     d="m 61.537778,57.879925 c 0.180144,-0.07221 0.789273,-0.173602 1.167125,-0.194271 0.430082,-0.02353 0.935378,0.0201 1.343958,0.11602 0.22424,0.05265 0.23881,0.06102 0.14418,0.08287 -0.16595,0.03831 -2.751139,0.03382 -2.655263,-0.0046 z"
     style="opacity:0.95;fill:#f9f9f9;stroke:#ffffff;stroke-width:0.03509004" />
  <path
     id="path8974"
     d="m 41.570438,84.865842 c -0.623011,-0.07149 -0.93737,-0.237657 -0.878136,-0.464168 0.02938,-0.112335 0.291467,-0.302481 0.5304,-0.384803 0.199423,-0.06871 0.300961,-0.07973 0.723253,-0.07852 0.585447,0.0017 0.911615,0.07444 1.403602,0.313121 0.567976,0.275548 0.520382,0.439872 -0.16186,0.558845 -0.376,0.06557 -1.26405,0.09606 -1.617259,0.05553 z"
     style="opacity:0.95;fill:#f9f9f9;stroke:#ffffff;stroke-width:0.03509004" />
  <path
     id="path8976"
     d="m 14.463935,18.702657 c 0,-0.01475 0.428534,-0.517999 0.709636,-0.833355 0.883456,-0.991111 1.792176,-1.90872 2.615146,-2.640728 0.348068,-0.309598 0.965128,-0.833187 0.981927,-0.833187 0.02587,0 -0.150583,0.23447 -0.29708,0.394763 -0.08819,0.0965 -0.282189,0.317565 -0.431104,0.491261 -1.074041,1.252766 -2.932477,3.072775 -3.35044,3.281161 -0.03377,0.01684 -0.09891,0.0579 -0.144746,0.09125 -0.04584,0.03335 -0.08334,0.05532 -0.08334,0.04884 z"
     style="opacity:0.95;fill:#f9f9f9;stroke:#ffffff;stroke-width:0.01754502" />
</svg>
