<?xml version="1.0" encoding="UTF-8" standalone="no"?>
<svg
   xmlns:dc="http://purl.org/dc/elements/1.1/"
   xmlns:cc="http://creativecommons.org/ns#"
   xmlns:rdf="http://www.w3.org/1999/02/22-rdf-syntax-ns#"
   xmlns:svg="http://www.w3.org/2000/svg"
   xmlns="http://www.w3.org/2000/svg"
   viewBox="0 0 85.998708 85.849021"
   height="85.849022"
   width="85.998711"
   version="1.1"
   id="svg8978">
  <metadata
     id="metadata8984">
    <rdf:RDF>
      <cc:Work
         rdf:about="">
        <dc:format>image/svg+xml</dc:format>
        <dc:type
           rdf:resource="http://purl.org/dc/dcmitype/StillImage" />
        <dc:title></dc:title>
      </cc:Work>
    </rdf:RDF>
  </metadata>
  <defs
     id="defs8982" />
  <g
     transform="translate(-22.592256,-18.90903)"
     id="g9528">
    <path
       id="path9542"
       d="M 40,36.875 C 40.855861,35.84375 41.837361,35 42.181111,35 c 0.34375,0 -0.07525,0.84375 -0.931111,1.875 -0.855861,1.03125 -1.837361,1.875 -2.181111,1.875 -0.34375,0 0.07525,-0.84375 0.931111,-1.875 z"
       style="fill:#e7e7e7" />
    <path
       id="path9540"
       d="m 80,80.625 c 0.855861,-1.03125 1.837361,-1.875 2.181111,-1.875 0.34375,0 -0.07525,0.84375 -0.931111,1.875 -0.855861,1.03125 -1.837361,1.875 -2.181111,1.875 -0.34375,0 0.07525,-0.84375 0.931111,-1.875 z m 20.09868,-18.645834 c -0.0543,-1.317707 0.24116,-2.055988 0.65653,-1.640625 0.41536,0.415365 0.45977,1.49349 0.0987,2.395834 -0.39904,0.997166 -0.69523,0.70097 -0.75521,-0.755209 z"
       style="fill:#d0d0d0" />
    <path
       id="path9538"
       d="m 63.4375,86.672149 c 0.859375,-0.346765 2.265625,-0.346765 3.125,0 0.859375,0.346766 0.15625,0.630482 -1.5625,0.630482 -1.71875,0 -2.421875,-0.283716 -1.5625,-0.630482 z"
       style="fill:#aeaeae" />
    <path
       id="path9536"
       d="M 49.256235,79.6875 46.875,76.875 l 2.8125,2.381235 c 1.546875,1.309679 2.8125,2.575304 2.8125,2.8125 0,1.000316 -1.005993,0.261821 -3.243765,-2.381235 z M 107.74369,61.875 c -0.0255,-2.0625 0.23383,-3.05758 0.57623,-2.21129 0.3424,0.846291 0.36325,2.533791 0.0463,3.75 -0.31692,1.21621 -0.59707,0.52379 -0.62254,-1.53871 z"
       style="fill:#8f8f8f" />
    <path
       id="path9534"
       d="m 63.41371,104.18008 c 0.846291,-0.3424 2.533791,-0.36325 3.75,-0.0463 1.21621,0.31692 0.52379,0.59707 -1.53871,0.62254 -2.0625,0.0255 -3.05758,-0.23383 -2.21129,-0.57623 z M 95,91.875 C 95.855861,90.84375 96.837361,90 97.181111,90 c 0.34375,0 -0.07525,0.84375 -0.931111,1.875 -0.855861,1.03125 -1.837361,1.875 -2.181111,1.875 -0.34375,0 0.07525,-0.84375 0.931111,-1.875 z"
       style="fill:#717171" />
    <path
       id="path9532"
       d="m 75,75.625 c 0.855861,-1.03125 1.837361,-1.875 2.181111,-1.875 0.34375,0 -0.07525,0.84375 -0.931111,1.875 -0.855861,1.03125 -1.837361,1.875 -2.181111,1.875 -0.34375,0 0.07525,-0.84375 0.931111,-1.875 z M 22.598684,65.729166 c -0.05427,-1.317707 0.24116,-2.055988 0.656525,-1.640625 0.415364,0.415365 0.459772,1.49349 0.09869,2.395834 -0.399032,0.997166 -0.695229,0.70097 -0.755209,-0.755209 z m 6.25,-3.75 c -0.05427,-1.317707 0.24116,-2.055988 0.656525,-1.640625 0.415364,0.415365 0.459772,1.49349 0.09869,2.395834 -0.399032,0.997166 -0.695229,0.70097 -0.755209,-0.755209 z m -6.25,-3.75 c -0.05427,-1.317707 0.24116,-2.055988 0.656525,-1.640625 0.415364,0.415365 0.459772,1.49349 0.09869,2.395834 -0.399032,0.997166 -0.695229,0.70097 -0.755209,-0.755209 z M 94.840556,31.5625 C 93.285718,29.57993 93.32993,29.535717 95.3125,31.090556 97.394685,32.723517 98.056849,33.75 97.028056,33.75 c -0.25957,0 -1.243945,-0.984375 -2.1875,-2.1875 z M 63.41371,19.180079 c 0.846291,-0.342404 2.533791,-0.363247 3.75,-0.04631 1.21621,0.31693 0.52379,0.597079 -1.53871,0.622553 -2.0625,0.02548 -3.05758,-0.233832 -2.21129,-0.576235 z"
       style="fill:#4f4f4f" />
    <path
       id="path9530"
       d="M 53.75,102.58109 C 47.425159,100.65019 40.363641,96.319524 35.326505,91.282387 15.244806,71.200689 21.219799,36.325153 46.9076,23.684505 c 5.346289,-2.630843 7.968757,-3.057976 18.7174,-3.048598 10.648936,0.0093 13.305104,0.438932 17.936766,2.901302 8.266184,4.39462 16.004833,12.205687 19.850154,20.035907 3.00522,6.119547 3.46308,8.539259 3.46308,18.301884 0,9.791459 -0.45383,12.174166 -3.50046,18.378266 -4.382899,8.925268 -13.786394,17.535836 -22.856891,20.929544 -7.053799,2.63916 -20.416537,3.3372 -26.767649,1.39828 z m 27.5,-8.64277 C 89.397099,89.728588 94.328773,84.484932 98.150764,75.968405 107.17092,55.86883 95.067155,31.465878 73.79826,26.87019 50.858775,21.91353 29.6875,38.714339 29.6875,61.875 c 0,15.740216 10.170989,29.615114 25.304408,34.519364 C 61.078966,98.366982 75.243181,97.042136 81.25,93.93832 Z M 56.813029,84.491755 C 49.772832,81.425238 42.869036,70.86861 46.428735,68.613084 c 2.683412,-1.700286 3.38073,-1.357389 5.47485,2.692195 5.726428,11.073687 20.316805,11.35587 26.712119,0.51662 2.782716,-4.716353 5.521512,-5.210309 6.093468,-1.098989 0.562387,4.042535 -4.41156,10.513897 -10.047497,13.072315 -6.153436,2.793334 -12.468921,3.039791 -17.848646,0.69653 z M 46.5,52.25 C 45.675,51.425 45,49.2875 45,47.5 c 0,-4.208684 2.131721,-6.25 6.526799,-6.25 4.596511,0 7.079659,4.702319 4.950644,9.375 C 54.912114,54.060523 49.235119,54.985119 46.5,52.25 Z m 27.760054,-1.625 c -1.896771,-2.894839 -1.896771,-3.355161 0,-6.25 C 77.717629,39.098074 86.25,41.321909 86.25,47.5 c 0,6.178091 -8.532371,8.401926 -11.989946,3.125 z"
       style="fill:#222222" />
  </g>
  <path
     id="path9544"
     d="m 41.803839,85.849421 c 0.08739,-0.0353 0.230402,-0.0353 0.317796,0 0.08739,0.0353 0.01589,0.0641 -0.158898,0.0641 -0.174788,0 -0.246292,-0.0289 -0.158898,-0.0641 z"
     style="opacity:0.95;fill:#f9f9f9;stroke:#ffffff;stroke-width:0.12711865" />
  <path
     id="path9546"
     d="m 42.208481,85.806051 c -0.02648,-0.0278 -0.298196,-0.0544 -0.603813,-0.0591 -0.596945,-0.009 -1.032364,-0.117045 -1.032364,-0.255661 0,-0.14108 0.670644,-0.34854 1.375492,-0.425502 0.997583,-0.108926 2.744583,0.09799 3.105131,0.367776 0.167913,0.125644 0.06954,0.186741 -0.441363,0.274117 -0.511617,0.0875 -2.34207,0.16245 -2.403083,0.0984 z"
     style="opacity:0.95;fill:#f9f9f9;stroke:#ffffff;stroke-width:0.06355932" />
  <path
     id="path9548"
     d="m 41.128569,68.297166 c -0.656527,-0.102947 -0.771764,-0.253272 -0.353367,-0.460963 0.781338,-0.387853 2.490894,-0.387853 3.284107,0 0.31188,0.152498 0.294054,0.278526 -0.0548,0.387438 -0.345303,0.107803 -2.33323,0.158626 -2.875939,0.07353 z"
     style="opacity:0.95;fill:#f9f9f9;stroke:#ffffff;stroke-width:0.06355932" />
  <path
     id="path9550"
     d="m 56.436891,63.549015 c -0.379038,-0.379038 2.119257,-3.372786 3.060515,-3.667465 0.574102,-0.179734 -0.24329,1.219617 -1.436339,2.45897 -0.771871,0.801828 -1.493731,1.33894 -1.624176,1.208495 z"
     style="opacity:0.95;fill:#f9f9f9;stroke:#ffffff;stroke-width:0.06355932" />
  <path
     id="path9552"
     d="m 51.893906,57.446081 c 0.760841,-1.12145 2.358812,-2.648548 2.664754,-2.546568 0.09362,0.03121 -0.661495,0.915593 -1.364229,1.597776 -0.58789,0.570695 -1.382616,1.250699 -1.461705,1.250699 -0.02401,0 0.04852,-0.135858 0.16118,-0.301907 z"
     style="opacity:0.95;fill:#f9f9f9;stroke:#ffffff;stroke-width:0.06355932" />
  <path
     id="path9554"
     d="m 29.095209,63.260823 c -0.207195,-0.152534 -0.72567,-0.647325 -1.152167,-1.099534 -0.794904,-0.842828 -3.204538,-3.664246 -3.164039,-3.704745 0.03587,-0.03588 2.838214,2.360861 3.747991,3.205517 0.4549,0.422338 0.953529,0.931837 1.108065,1.13222 0.245475,0.318302 0.273434,0.385907 0.221288,0.53508 -0.09594,0.274448 -0.323019,0.254 -0.761138,-0.06854 z"
     style="opacity:0.95;fill:#f9f9f9;stroke:#ffffff;stroke-width:0.06355932" />
  <path
     id="path9556"
     d="m 5.8689157,81.095446 c 0,-9.741525 0.01095,-17.699947 0.02434,-17.685382 0.01339,0.01457 0.286764,0.465898 0.607506,1.002959 3.6010593,6.029734 8.5699533,10.910317 15.2579853,14.98681 3.313103,2.019403 7.61511,3.909263 10.391949,4.565153 5.149878,1.216404 13.757067,1.095638 20.720339,-0.290722 2.973775,-0.592067 5.198579,-1.31277 7.634525,-2.473131 6.825017,-3.251088 13.70287,-9.320731 18.04141,-15.921365 1.13426,-1.725671 2.02506,-3.353161 3.00922,-5.497882 2.33242,-5.082867 2.74328,-7.600758 2.74328,-16.81144 0,-5.207689 -0.15706,-8.155057 -0.54615,-10.248941 l -0.0384,-0.206568 11.79732,0 11.79733,0 0,33.146187 0,33.146187 -50.720334,0 -50.7203383,0 0,-17.711865 z m 39.0523383,4.614375 c 0.137156,-0.05009 0.260537,-0.125144 0.274181,-0.166791 0.03235,-0.09874 -0.24259,-0.237857 -0.716004,-0.362286 -0.486358,-0.12783 -1.942341,-0.266492 -2.101294,-0.200118 -0.06683,0.02791 -0.237834,0.0452 -0.380008,0.03844 -0.526744,-0.02506 -1.489384,0.279005 -1.489384,0.470448 0,0.263287 0.599522,0.340917 2.510593,0.325077 1.248008,-0.0104 1.713588,-0.036 1.901916,-0.10477 z M 71.942275,74.647193 c 0.172894,-0.109039 0.61772,-0.502313 0.988506,-0.873941 1.643399,-1.64714 2.396989,-3.251284 1.165619,-2.48122 -0.17289,0.108122 -0.628968,0.517632 -1.013502,0.910023 -1.626471,1.659697 -2.348111,3.206669 -1.140623,2.445138 z M 85.71708,44.75286 c 0.20879,-0.562354 0.31612,-1.508995 0.27774,-2.449787 -0.0193,-0.471928 -0.0662,-0.972458 -0.10436,-1.112288 -0.27693,-1.015212 -0.56032,-0.976502 -0.69794,0.09534 -0.12559,0.978119 -0.0467,3.2015 0.13002,3.666422 0.0927,0.243711 0.26167,0.15817 0.39454,-0.199686 z"
     style="opacity:0.95;fill:#f9f9f9;stroke:#ffffff;stroke-width:0.06355932" />
  <path
     id="path9558"
     d="m 71.398576,74.682826 c 0,-0.160094 0.402386,-0.87182 0.749995,-1.326563 0.386944,-0.506201 1.492878,-1.644698 1.858119,-1.912825 0.37001,-0.271636 0.63399,-0.346856 0.63202,-0.180094 -0.004,0.376987 -0.66403,1.317349 -1.606054,2.289769 -0.750286,0.774497 -1.182601,1.12924 -1.46147,1.199232 -0.139225,0.03494 -0.17261,0.0215 -0.17261,-0.06952 z"
     style="opacity:0.95;fill:#f9f9f9;stroke:#ffffff;stroke-width:0.06355932" />
  <path
     id="path9560"
     d="m 85.39199,44.928366 c -0.12628,-0.235949 -0.21879,-1.602319 -0.18206,-2.688853 0.0555,-1.641654 0.25142,-2.110753 0.53176,-1.273205 0.33394,0.997709 0.2179,3.412125 -0.19087,3.971146 -0.0871,0.119107 -0.0903,0.118922 -0.15883,-0.0091 z"
     style="opacity:0.95;fill:#f9f9f9;stroke:#ffffff;stroke-width:0.06355932" />
  <path
     id="path9562"
     d="m 77.72309,44.251111 c -0.14655,-0.223665 -0.24714,-1.377743 -0.17331,-1.988417 0.0939,-0.7764 0.29088,-1.067645 0.56743,-0.83881 0.44397,0.367364 0.45515,1.725391 0.0216,2.621014 -0.16494,0.340714 -0.28768,0.401601 -0.41571,0.206213 z"
     style="opacity:0.95;fill:#f9f9f9;stroke:#ffffff;stroke-width:0.06355932" />
  <path
     id="path9564"
     d="m 73.601991,14.134197 c -0.855576,-0.861145 -2.45774,-2.869172 -2.364026,-2.962886 0.08918,-0.08918 2.017267,1.433274 2.807905,2.217163 0.92378,0.915897 1.06832,1.337397 0.47367,1.381317 -0.26178,0.01933 -0.27806,0.0081 -0.917549,-0.635594 z"
     style="opacity:0.95;fill:#f9f9f9;stroke:#ffffff;stroke-width:0.06355932" />
  <path
     id="path9566"
     d="m 41.192128,0.73362381 c -0.419354,-0.06578 -0.63797,-0.164526 -0.603891,-0.272778 0.01301,-0.04133 0.222112,-0.142254 0.464668,-0.224275 0.862125,-0.29153 2.834036,-0.239968 3.744013,0.0979 0.170038,0.06313 0.311191,0.14339 0.313673,0.178348 0.0025,0.03496 -0.109513,0.103234 -0.248878,0.151726 -0.305329,0.106238 -3.097572,0.158802 -3.669585,0.06908 z"
     style="opacity:0.95;fill:#f9f9f9;stroke:#ffffff;stroke-width:0.06355932" />
  <path
     id="path9568"
     d="m 0.1960847,40.411536 c -0.134041,-0.313951 -0.189674,-1.75373 -0.08689,-2.248818 0.08499,-0.409416 0.266698,-0.627448 0.437475,-0.524938 0.1794,0.107686 0.404486,0.629809 0.400137,0.928181 -0.0096,0.659978 -0.120559,1.302373 -0.284842,1.6494 -0.2181,0.460709 -0.332387,0.508834 -0.465876,0.196175 z"
     style="opacity:0.95;fill:#f9f9f9;stroke:#ffffff;stroke-width:0.06355932" />
  <path
     id="path9570"
     d="m 0.1911377,47.911536 c -0.147684,-0.329827 -0.158038,-2.240094 -0.01366,-2.519973 0.151869,-0.2944 0.285088,-0.344767 0.464956,-0.17579 0.132342,0.124329 0.156088,0.213666 0.176824,0.665246 0.0556,1.210719 0.03564,1.452571 -0.151381,1.834342 -0.22604,0.461429 -0.337444,0.507271 -0.47674,0.196175 z"
     style="opacity:0.95;fill:#f9f9f9;stroke:#ffffff;stroke-width:0.06355932" />
  <path
     id="path9572"
     d="m 7.2449547,42.648428 c -9.76e-4,-0.02369 0.0043,-0.03696 0.0118,-0.02949 0.0075,0.0075 0.0083,0.02685 0.0018,0.04307 -0.0072,0.01793 -0.0125,0.0126 -0.01358,-0.01358 z"
     style="opacity:0.95;fill:#f9f9f9;stroke:#ffffff;stroke-width:0.02247161" />
  <path
     id="path9574"
     d="m 7.1045057,42.749589 c 0.0026,-0.443525 0.0071,-0.847524 0.01,-0.897775 l 0.0052,-0.09137 0.02988,0.09137 c 0.03509,0.107282 0.06387,0.238048 0.08148,0.3701 0.01622,0.121702 0.02555,0.384667 0.01364,0.384667 -0.01594,0 -0.02008,0.04688 -0.006,0.06831 0.01172,0.01788 0.01216,0.03152 0.0042,0.128782 -0.01895,0.231355 -0.06571,0.495482 -0.119127,0.672873 l -0.02392,0.07945 0.0048,-0.806409 z"
     style="opacity:0.95;fill:#f9f9f9;stroke:#ffffff;stroke-width:0.00794492" />
</svg>
